<svg width="92" height="102" viewBox="0 0 92 102" fill="none" xmlns="http://www.w3.org/2000/svg">
<path d="M81 46H11C5.47715 46 1 50.4772 1 56V91C1 96.5228 5.47715 101 11 101H81C86.5229 101 91 96.5228 91 91V56C91 50.4772 86.5229 46 81 46Z" stroke="white" stroke-width="2" stroke-linecap="round" stroke-linejoin="round"/>
<path d="M21 46V26C21 19.3696 23.6339 13.0107 28.3223 8.32233C33.0107 3.63392 39.3696 1 46 1C52.6304 1 58.9893 3.63392 63.6777 8.32233C68.3661 13.0107 71 19.3696 71 26V46" stroke="white" stroke-width="2" stroke-linecap="round" stroke-linejoin="round"/>
</svg>
