<svg width="26" height="28" viewBox="0 0 26 28" fill="none" xmlns="http://www.w3.org/2000/svg">
<path d="M21.8 12.7H3.6C2.16406 12.7 1 13.8641 1 15.3V24.4C1 25.8359 2.16406 27 3.6 27H21.8C23.2359 27 24.4 25.8359 24.4 24.4V15.3C24.4 13.8641 23.2359 12.7 21.8 12.7Z" stroke="white" stroke-width="2" stroke-linecap="round" stroke-linejoin="round"/>
<path d="M6.19971 12.7V7.5C6.19971 5.77609 6.88453 4.12279 8.10351 2.90381C9.3225 1.68482 10.9758 1 12.6997 1C14.4236 1 16.0769 1.68482 17.2959 2.90381C18.5149 4.12279 19.1997 5.77609 19.1997 7.5V12.7" stroke="white" stroke-width="2" stroke-linecap="round" stroke-linejoin="round"/>
</svg>
