<svg width="75" height="75" viewBox="0 0 75 75" fill="none" xmlns="http://www.w3.org/2000/svg">
<path d="M48.5988 35.382H26.0854C24.3091 35.382 22.8691 36.8219 22.8691 38.5982V49.8549C22.8691 51.6312 24.3091 53.0711 26.0854 53.0711H48.5988C50.3751 53.0711 51.815 51.6312 51.815 49.8549V38.5982C51.815 36.8219 50.3751 35.382 48.5988 35.382Z" stroke="white" stroke-width="2" stroke-linecap="round" stroke-linejoin="round"/>
<path d="M29.3018 35.3819V28.9495C29.3018 26.817 30.1489 24.7719 31.6568 23.264C33.1647 21.7561 35.2098 20.909 37.3423 20.909C39.4748 20.909 41.5199 21.7561 43.0278 23.264C44.5357 24.7719 45.3828 26.817 45.3828 28.9495V35.3819" stroke="white" stroke-width="2" stroke-linecap="round" stroke-linejoin="round"/>
<circle cx="37.2442" cy="37.2442" r="36.7442" stroke="white"/>
</svg>
